PathFileType	4	(X/Y/Z)	G:\マイドライブ\biomec\experimentalData\240725\CJ3.trc
DataRate	CameraRate	NumFrames	NumMarkers	Units	OrigDataRate	OrigDataStartFrame	OrigNumFrames
200.00	200.00	      4	52	mm	200.00	209	      1667
Frame#	Time	handR			wrRI			wrRO			elbRI			elbRO			shRF			shRU			shRB			handL			wrLI			wrLO			elbLI			elbLO			shLF			shLU			shLB			toeR			baRI			baRO			heelR			anRI			anRO			knRI			knRO			troR			toeL			baLI			baLO			heelL			anLI			anLO			knLI			knLO			troL			head			earR			earL			clav			c7			ribR			ribL			xiph			ASISR			ASISL			PSISR			PSISL			t8			t11			L1			L3			LS			COX			
		X1	Y1	Z1	X2	Y2	Z2	X3	Y3	Z3	X4	Y4	Z4	X5	Y5	Z5	X6	Y6	Z6	X7	Y7	Z7	X8	Y8	Z8	X9	Y9	Z9	X10	Y10	Z10	X11	Y11	Z11	X12	Y12	Z12	X13	Y13	Z13	X14	Y14	Z14	X15	Y15	Z15	X16	Y16	Z16	X17	Y17	Z17	X18	Y18	Z18	X19	Y19	Z19	X20	Y20	Z20	X21	Y21	Z21	X22	Y22	Z22	X23	Y23	Z23	X24	Y24	Z24	X25	Y25	Z25	X26	Y26	Z26	X27	Y27	Z27	X28	Y28	Z28	X29	Y29	Z29	X30	Y30	Z30	X31	Y31	Z31	X32	Y32	Z32	X33	Y33	Z33	X34	Y34	Z34	X35	Y35	Z35	X36	Y36	Z36	X37	Y37	Z37	X38	Y38	Z38	X39	Y39	Z39	X40	Y40	Z40	X41	Y41	Z41	X42	Y42	Z42	X43	Y43	Z43	X44	Y44	Z44	X45	Y45	Z45	X46	Y46	Z46	X47	Y47	Z47	X48	Y48	Z48	X49	Y49	Z49	X50	Y50	Z50	X51	Y51	Z51	X52	Y52	Z52	

209	1.040	259.07315	1476.53296	824.80249	242.85156	1533.68201	898.78510	304.74316	1501.81653	911.17401	339.84506	1640.11499	1107.20874	270.90213	1616.92566	1125.08447	390.63095	1549.13550	1401.87317	341.66827	1590.47034	1426.52576	333.15988	1642.52063	1391.48169	781.71631	1665.55273	773.66858	758.81244	1721.46899	849.04083	740.71576	1646.61353	852.99084	659.48663	1739.15784	1069.89514	731.83221	1762.90039	1076.82263	703.63202	1629.89233	1362.90137	729.72260	1690.71741	1381.88513	686.11743	1742.62244	1342.81055	363.74448	1435.77234	54.72350	408.25742	1519.43079	61.31231	289.51227	1534.74976	82.86351	375.07837	1707.74365	138.01892	417.05884	1599.65344	174.86005	321.00174	1616.42249	179.70245	467.62314	1420.58899	489.17685	358.06079	1400.31787	492.79514	335.53424	1531.98450	875.83441	528.54553	1555.79370	53.85872	480.71439	1625.55127	56.34259	592.98199	1654.56201	47.22783	527.57611	1840.64380	45.97442	498.00723	1746.15234	139.89441	584.00452	1771.45520	107.94968	524.27441	1662.90125	481.51782	631.66766	1663.04675	477.26523	669.02032	1610.21594	862.29431	610.71051	1560.69629	1693.09900	507.26901	1520.64343	1540.13806	656.16400	1568.35010	1509.96924	553.96857	1565.76062	1378.33374	536.59448	1678.67236	1466.49146	415.73035	1540.02869	1106.44934	631.75470	1582.63196	1087.44141	544.01825	1528.47437	1226.18604	416.01599	1496.30396	970.56555	630.80695	1543.20435	971.61951	425.84055	1674.54431	990.65894	545.46533	1695.60742	993.54742	498.95615	1740.42993	1249.23596	493.19925	1711.24548	1123.51074	493.76813	1691.69348	1068.03040	488.12601	1686.17529	1022.97247	485.42737	1696.17688	984.70966	476.56467	1715.80566	883.29584	
210	1.045	259.18381	1475.03882	824.89587	242.52304	1531.68872	899.36206	304.79657	1499.98511	911.18378	340.10562	1637.56787	1107.72083	271.38351	1613.85742	1125.77393	392.27621	1546.06482	1402.08923	342.95361	1587.01721	1426.95178	334.06662	1639.17651	1391.96338	782.02710	1666.49536	773.81549	758.43188	1722.09912	849.28070	741.32690	1646.88513	853.21497	659.16754	1738.48169	1070.18176	731.29382	1763.01160	1077.02759	704.56934	1629.40637	1363.04163	730.21143	1691.06128	1382.31201	685.98712	1741.79834	1342.97107	365.24954	1424.58545	54.83864	409.24930	1508.83081	60.29180	290.32202	1523.10559	82.14580	375.11142	1697.79651	135.80885	417.76920	1590.27271	173.63943	321.70605	1606.41431	178.23003	468.83188	1415.92310	490.38110	359.37558	1394.73279	494.23315	336.55048	1528.88489	876.51129	528.62292	1555.29895	53.84513	480.88898	1625.45056	56.41696	593.10175	1654.07813	46.94271	527.69189	1840.67444	46.27428	498.86804	1745.37158	140.12907	584.28271	1771.34143	108.09737	524.86621	1661.51855	481.59335	632.10248	1662.38708	477.46472	669.57739	1609.32861	862.44373	612.38678	1558.60181	1693.10156	509.11868	1518.45959	1540.22937	656.39063	1567.71814	1510.96521	555.41772	1564.17529	1378.39282	537.34961	1676.52173	1466.67273	417.10739	1537.44409	1106.83142	632.50873	1581.81604	1087.43994	545.47412	1526.58276	1226.22205	417.60126	1493.53418	970.92212	632.12463	1542.11182	971.77094	426.20947	1672.02185	990.85950	545.39215	1694.09888	993.67456	498.97440	1738.41602	1249.49280	493.03146	1709.27100	1123.67371	493.93198	1689.55652	1068.13708	488.25110	1684.30334	1023.15546	485.36819	1693.87097	984.95728	476.16336	1713.49341	883.29236	
211	1.050	259.15994	1473.49927	825.07336	242.54312	1529.60913	899.81110	305.00146	1499.32056	910.48517	340.26672	1635.03723	1108.41577	271.51910	1611.09302	1126.55066	393.76050	1542.92896	1402.33228	344.36459	1583.43005	1427.50476	335.32666	1635.73547	1392.41150	782.34515	1667.21240	773.89093	758.16956	1722.61035	849.50958	741.78748	1647.20068	853.37891	658.83228	1737.80273	1070.51660	730.71210	1763.27368	1077.25952	705.34930	1628.91724	1363.03882	730.56848	1690.75354	1382.35706	685.92267	1741.12756	1343.16943	367.06143	1413.47314	54.30699	410.59543	1497.66418	59.41715	291.61584	1511.99341	81.01839	375.20786	1687.30884	133.37254	418.27087	1580.36084	172.03070	322.23334	1596.20251	176.56693	470.38742	1410.88892	491.91806	361.22418	1389.11987	495.61383	337.43555	1526.02991	877.15875	528.76709	1555.70288	53.84668	481.60864	1625.58716	56.64288	593.56104	1653.87085	47.15247	527.79956	1840.68884	46.61832	499.29718	1745.04041	140.41194	584.57092	1771.25464	108.24617	525.37573	1660.70593	481.68610	632.52972	1661.74451	477.73004	670.17010	1608.22156	862.59265	614.14545	1556.55151	1692.92212	510.82126	1516.20251	1540.12195	658.16113	1566.18396	1510.87402	556.83405	1562.31580	1378.48120	537.92108	1674.38184	1466.84607	418.22366	1534.98767	1107.06091	633.17859	1580.91870	1087.44507	546.97510	1524.80151	1226.28381	419.02322	1490.84814	971.28754	633.08917	1541.38672	971.78259	426.04651	1669.52795	990.93805	545.26990	1692.36755	993.61267	498.94519	1736.29346	1249.85986	493.10526	1707.14966	1123.98340	493.95630	1687.52527	1068.31372	488.16568	1682.40698	1023.31836	485.47598	1691.81250	985.21478	475.91687	1711.10364	883.28473	
212	1.055	259.14923	1471.71545	825.24188	242.57072	1527.41687	900.20538	305.21130	1497.36780	910.53369	340.16245	1632.46716	1109.11914	271.99054	1608.02856	1127.24402	395.23792	1539.97998	1402.66028	345.61600	1580.34326	1427.69067	336.08270	1632.30420	1392.91687	782.68469	1667.99182	774.03162	757.74786	1723.21350	849.71130	742.21838	1647.57910	853.59814	658.50519	1737.42871	1070.68274	730.20764	1763.50977	1077.46509	706.35492	1628.26929	1362.96484	731.00232	1690.30273	1382.34326	685.96057	1740.57678	1343.42786	368.36945	1402.03699	54.30478	411.84778	1486.79309	58.99066	292.60629	1500.29565	80.52357	375.29117	1676.69592	130.85188	419.18643	1570.27954	170.78702	322.92972	1585.67542	174.98978	471.63474	1406.31873	492.98489	362.47452	1383.96936	497.11273	338.61124	1522.99426	877.74725	528.79553	1555.83057	53.48660	481.96753	1625.06775	56.94741	593.69336	1653.85156	47.02759	527.94366	1840.60156	46.92017	499.66797	1744.76489	140.68634	584.88367	1771.15625	108.42067	525.81512	1659.70642	481.86411	632.87543	1661.30115	477.93344	670.67358	1607.38782	862.57117	615.89996	1554.23938	1693.21716	512.38489	1513.63879	1540.00769	659.40948	1564.63110	1510.68079	557.93115	1560.61841	1378.57825	538.90833	1672.25977	1467.04944	419.61722	1532.42188	1107.22876	634.07660	1580.05457	1087.50171	548.43359	1523.06970	1226.29895	420.31262	1488.44604	971.64008	634.02478	1540.00012	972.07202	426.12427	1666.99988	991.10345	545.30682	1690.69507	993.76453	498.93314	1734.14124	1250.16345	492.93893	1705.25293	1124.27393	494.10730	1685.20691	1068.43518	488.19058	1680.37476	1023.32782	485.23865	1689.85779	985.37793	475.54568	1708.87097	883.32031	
